<svg width="142" height="32" viewBox="0 0 142 32" fill="none" xmlns="http://www.w3.org/2000/svg">
<g clip-path="url(#clip0_1567_355)">
<mask id="mask0_1567_355" style="mask-type:luminance" maskUnits="userSpaceOnUse" x="0" y="0" width="142" height="32">
<path d="M0 0H142V31.2909H0V0Z" fill="white"/>
</mask>
<g mask="url(#mask0_1567_355)">
<path d="M132.035 0.000347867C133.634 0.0240362 134.987 1.10482 136.082 2.50984C136.309 2.80002 136.808 2.92143 137.039 2.63568C139.175 0.000347853 142 0.608843 141.997 3.37743C142.16 8.99601 133.773 17.1952 131.728 10.6128C130.83 7.71832 128.726 5.75811 128.632 3.5995C128.548 1.6541 130.087 -0.0277821 132.035 0.000347867Z" fill="#EA534A"/>
<path d="M1.07492 28.1346C1.07492 26.0871 1.411 25.6163 2.38371 24.7783C3.18911 24.1076 3.28979 23.4355 3.28979 22.294V14.271C3.28979 12.5581 3.18911 12.0221 2.01506 11.9881C0.772896 11.9214 6.30745e-05 11.4506 6.30745e-05 10.2425C-0.033989 8.69837 0.771416 7.49026 1.981 6.48203C2.92114 5.70919 4.19587 5.17324 5.43803 5.17324C7.11694 5.17324 8.15775 6.07932 8.19032 7.42216C8.19032 8.22757 8.3591 8.36229 8.6937 8.36229C9.16451 8.36229 9.36438 7.79229 9.76856 7.25486C10.574 5.98013 12.0175 4.90527 14.1657 4.90527C18.7316 4.90527 21.5846 8.63175 21.5846 14.4383C21.5846 20.2449 19.1003 24.2749 13.6964 24.2749C10.8094 24.2409 10.7427 22.898 9.96991 22.9321C9.19856 22.9987 9.19856 23.6028 9.23113 24.3756C9.26518 24.879 9.43248 25.2151 10.2379 25.6844C11.3794 26.3225 11.9168 26.9932 11.9168 28.604C11.9168 30.2148 11.178 31.2556 8.72775 31.2896C5.47208 31.2896 1.07344 30.8869 1.07344 28.1346H1.07492ZM14.3345 14.6737C13.8977 12.4248 13.0923 10.9472 11.2802 11.2833C9.63531 11.5854 9.36586 13.2302 9.63531 15.1771C9.96991 17.9294 10.7427 18.7689 12.589 18.5335C14.3004 18.3662 14.7712 16.9893 14.3345 14.6722V14.6737Z" fill="white"/>
<path d="M44.5493 18.4667C44.5493 16.5865 44.918 15.0423 44.918 12.9947C44.918 11.988 44.7507 12.0886 43.5751 12.0546C42.333 11.988 42.333 10.9797 42.333 9.46962C42.333 6.95126 42.8038 7.18665 46.1261 5.44111C48.3084 4.26706 49.5165 3.39355 51.0607 3.39355C51.7654 3.39355 52.3694 3.72963 52.3694 4.70233C52.3694 6.04517 52.704 6.6433 54.2156 6.6433C56.1625 6.6433 56.9013 6.6433 56.9013 8.28816C56.9013 9.22829 56.8006 9.76425 56.734 11.0745C56.6333 12.9873 55.6592 12.9873 53.6782 12.9873C51.3627 12.9873 51.832 12.2885 51.7654 14.4708C51.7654 15.1755 51.6988 15.8802 51.6988 16.5184C51.6988 17.5592 52.3028 18.0966 53.2429 18.0966C54.1165 18.0966 55.0892 17.8612 55.8279 17.8612C56.466 17.8612 56.8347 18.1973 56.8006 19.6067C56.7681 22.5944 54.8212 24.7101 51.2961 24.7101C47.4023 24.7101 44.5493 22.3605 44.5493 18.4667Z" fill="white"/>
<path d="M58.2793 21.2534C58.2793 20.0453 58.3459 19.3065 59.286 18.5011C60.0248 17.863 60.1255 17.1923 60.2262 15.7148C60.2587 14.5733 60.2587 13.3978 60.2587 12.123C60.2587 10.7461 60.2587 8.43059 60.2262 7.15438C60.1921 6.11357 60.0248 5.91222 59.0847 5.8456C58.0098 5.81155 57.271 5.4429 57.271 4.13411C57.271 1.41735 67.4763 -2.66889 67.4763 2.58993C67.4763 3.49601 67.3756 4.97357 67.2068 7.59114C67.0055 10.1761 66.7035 14.0359 66.8382 16.4195C66.9048 17.3922 67.0395 17.7964 67.6776 18.3664C68.3824 18.9705 68.751 19.6086 68.751 21.0521C68.751 23.5364 67.9116 24.4765 63.4804 24.4765C59.5525 24.4765 58.2778 24.1404 58.2778 21.2534H58.2793Z" fill="white"/>
<path d="M69.6264 15.0098C69.6264 9.16913 72.6467 4.87117 79.2943 4.93927C85.7064 5.00589 88.6601 9.13507 88.6601 15.0098C88.6601 20.8845 85.6043 24.8789 79.0914 24.8789C72.5786 24.8789 69.625 20.9511 69.625 15.0098H69.6264ZM81.6439 14.4057C80.7378 11.5187 79.8643 10.3772 78.1187 10.848C76.5079 11.2507 76.0712 12.9622 76.7433 15.75C77.414 18.335 78.5555 19.2411 80.2344 18.8384C82.0466 18.4357 82.3826 16.8915 81.6439 14.4072V14.4057Z" fill="white"/>
<path d="M93.8962 21.3202C93.2921 19.4399 92.2173 16.2509 91.2771 13.3639C90.8078 11.8197 90.5724 11.451 89.9343 10.9477C89.5316 10.6116 89.3643 10.0742 89.3643 8.5981C89.3643 5.97905 90.337 5.375 94.9696 5.375C99.0647 5.375 99.8035 6.1804 99.8035 8.26202C99.8035 9.47013 99.6702 10.0416 99.0647 10.6116C98.6294 11.0483 98.5613 11.417 98.7301 12.2905C99.0647 13.8347 99.5015 15.5802 99.8716 16.9571C100.073 17.8632 100.141 18.1993 100.477 18.1993C100.913 18.1993 101.015 17.6959 101.317 16.7898C101.82 15.2116 101.888 15.0768 102.458 12.9286C102.76 11.7871 102.492 11.1831 101.854 10.579C101.52 10.1763 101.216 9.63891 101.216 8.36269C101.216 6.31513 101.719 5.44162 106.016 5.44162C109.072 5.44162 109.34 6.31513 109.34 8.16134C109.34 9.60485 108.971 10.2089 108.568 10.6797C107.997 11.3178 107.83 11.6198 107.393 12.7939C106.118 16.1177 105.513 17.8972 104.204 21.5556C103.364 23.8386 103.096 24.376 100.914 24.376H98.1956C95.5766 24.376 94.8719 24.1406 93.8991 21.3217L93.8962 21.3202Z" fill="white"/>
<path d="M109.67 15.4125C109.67 9.83986 112.69 4.90527 119.27 4.90527C124.305 4.90527 127.83 7.65756 127.83 13.3649C127.83 16.0166 127.259 16.4193 123.936 16.4193H117.055C116.652 16.4193 116.384 16.554 116.384 17.0233C116.384 18.0982 118.466 18.8029 121.051 18.8029C121.881 18.8029 122.559 18.7422 123.129 18.646C123.883 18.5186 126.502 17.8643 126.933 19.5047C127.005 19.7801 126.991 20.0702 126.924 20.3456C126.228 23.2267 123.218 24.879 119.273 24.879C113.533 24.879 109.673 21.0859 109.673 15.4125H109.67ZM122.436 11.4181C122.25 9.95682 120.949 8.66284 119.273 8.74723C117.133 8.83014 116.249 10.167 116.389 12.2116C116.436 13.0052 116.808 13.1295 117.598 13.1295C122.017 13.1295 122.577 12.5447 122.436 11.4181Z" fill="white"/>
<path d="M23.061 15.6812C23.061 10.1085 26.0813 5.17383 32.6607 5.17383C37.696 5.17383 41.2211 7.92613 41.2211 13.6336C41.2211 16.2852 40.6496 16.6879 37.3273 16.6879H30.4458C30.0431 16.6879 29.7752 16.8226 29.7752 17.292C29.7752 18.3668 31.8568 19.0715 34.4418 19.0715C35.2724 19.0715 35.9504 19.0108 36.5204 18.9146C37.274 18.7873 39.8931 18.1329 40.3239 19.7733C40.3964 20.0487 40.3816 20.3389 40.315 20.6143C39.6192 23.4954 36.6093 25.1476 32.6637 25.1476C26.9237 25.1476 23.064 21.3545 23.064 15.6812H23.061ZM35.8275 11.6867C35.641 10.2254 34.3396 8.9314 32.6637 9.01579C30.5243 9.0987 29.6404 10.4357 29.7796 12.4803C29.827 13.2738 30.1986 13.3982 30.9892 13.3982C35.4086 13.3982 35.9682 12.8134 35.8275 11.6867Z" fill="white"/>
</g>
</g>
<defs>
<clipPath id="clip0_1567_355">
<rect width="142" height="32" fill="white"/>
</clipPath>
</defs>
</svg>
