<svg width="48" height="48" viewBox="0 0 48 48" fill="none" xmlns="http://www.w3.org/2000/svg">
<path d="M10.4558 19.2352C11.1433 17.2887 12.2595 15.4582 13.831 13.8956C19.4117 8.31497 28.4568 8.31497 34.0375 13.8956L35.5643 15.4314H31.4302C30.4439 15.4314 29.6444 16.231 29.6444 17.2173V19.3602C29.6444 20.3465 30.4439 21.146 31.4302 21.146H42.4933C44.0738 21.146 45.3506 19.8692 45.3506 18.2887V7.2167C45.3506 6.23042 44.5511 5.43088 43.5648 5.43088H41.4218C40.4355 5.43088 39.636 6.23042 39.636 7.2167V11.4312L38.0734 9.8597C30.2605 2.04677 17.5991 2.04677 9.78612 9.8597C7.60743 12.0384 6.03591 14.601 5.07157 17.3423C4.54476 18.8334 5.33052 20.4585 6.81274 20.9853C8.29497 21.5121 9.92899 20.7264 10.4558 19.2442V19.2352ZM4.55369 26.9767C4.10723 27.1107 3.67864 27.3517 3.3304 27.7089C2.97324 28.0661 2.73216 28.4947 2.60715 28.959C2.58036 29.0661 2.55357 29.1822 2.53572 29.2983C2.50893 29.4501 2.5 29.6019 2.5 29.7537V40.79C2.5 41.7763 3.29954 42.5758 4.28581 42.5758H6.42879C7.41507 42.5758 8.21461 41.7763 8.21461 40.79V36.5844L9.78612 38.147C17.5991 45.951 30.2605 45.951 38.0645 38.147C40.2432 35.9683 41.8236 33.4057 42.788 30.6644C43.3148 29.1733 42.529 27.5482 41.0468 27.0214C39.5646 26.4946 37.9306 27.2803 37.4037 28.7625C36.7162 30.7091 35.6001 32.5395 34.0285 34.1021C28.4479 39.6828 19.4027 39.6828 13.8221 34.1021L13.8131 34.0932L12.2863 32.5753H16.4294C17.4156 32.5753 18.2152 31.7757 18.2152 30.7894V28.6465C18.2152 27.6602 17.4156 26.8607 16.4294 26.8607H5.39302C5.25015 26.8607 5.10729 26.8696 4.96442 26.8874C4.82156 26.9053 4.68762 26.9321 4.55369 26.9767Z" fill="white"/>
</svg>
